<svg height='300px' width='300px'  fill="#000000" xmlns="http://www.w3.org/2000/svg" viewBox="0 0 64 64" x="0px" y="0px"><path d="M21.383,26.224a1.133,1.133,0,0,0-.094.074,1.039,1.039,0,0,0-.086.112.9.9,0,0,0-.07.093,1.054,1.054,0,0,0-.06.143.99.99,0,0,0-.038.095A.969.969,0,0,0,21,27V37a1,1,0,0,0,.485.857l10,6,.011.005.011.008a.973.973,0,0,0,.164.067c.023.008.045.021.069.028a.983.983,0,0,0,.52,0c.024-.007.046-.02.069-.028a.973.973,0,0,0,.164-.067l.011-.008.011-.005,10-6A1,1,0,0,0,43,37V27a.982.982,0,0,0-.035-.26.774.774,0,0,0-.037-.09,1.057,1.057,0,0,0-.061-.147,1,1,0,0,0-.069-.092.944.944,0,0,0-.087-.113,1.118,1.118,0,0,0-.093-.074,1.146,1.146,0,0,0-.1-.081l-10-6a1,1,0,0,0-1.03,0l-10,6A.884.884,0,0,0,21.383,26.224ZM41,36.434l-8,4.8V33.566l8-4.8ZM40.056,27,32,31.834,28.944,30,37,25.166ZM32,22.166,35.056,24,27,28.834,23.944,27Zm-9,6.6,8,4.8v7.667l-8-4.8Z"></path><path d="M33,6l1.2,1.6,1.6-1.2-3-4a1.036,1.036,0,0,0-1.6,0l-3,4,1.6,1.2L31,6v8h2Z"></path><path d="M33,58V50H31v8l-1.2-1.6-1.6,1.2,3,4a1,1,0,0,0,1.6,0l3-4-1.6-1.2Z"></path><rect x="31" y="16" width="2" height="2"></rect><rect x="31" y="46" width="2" height="2"></rect><path d="M14,33V31H6l1.6-1.2L6.4,28.2l-4,3a1,1,0,0,0,0,1.6l4,3,1.2-1.6L6,33Z"></path><path d="M57.6,28.2l-1.2,1.6L58,31H50v2h8l-1.6,1.2,1.2,1.6,4-3a1,1,0,0,0,0-1.6Z"></path><rect x="16" y="31" width="2" height="2"></rect><rect x="46" y="31" width="2" height="2"></rect><path d="M19.979,18.565l-5.656-5.656,1.979.282.283-1.98L11.636,10.5A1,1,0,0,0,10.5,11.636l.707,4.949,1.98-.283-.282-1.979,5.656,5.656Z"></path><path d="M50.809,47.7l.282,1.979-5.656-5.656-1.414,1.414,5.656,5.656L47.7,50.809l-.283,1.98,4.949.707a.978.978,0,0,0,.142.01,1,1,0,0,0,.99-1.142l-.707-4.949Z"></path><rect x="20.394" y="20.394" width="2" height="2" transform="translate(-8.862 21.394) rotate(-45)"></rect><rect x="41.607" y="41.607" width="2" height="2" transform="translate(-17.648 42.606) rotate(-45)"></rect><path d="M18.565,44.021l-5.656,5.656.282-1.979-1.98-.283L10.5,52.364a1,1,0,0,0,.99,1.142.978.978,0,0,0,.142-.01l4.949-.707-.283-1.98-1.979.282,5.656-5.656Z"></path><path d="M52.789,16.585l.707-4.949a1,1,0,0,0-.283-.849.99.99,0,0,0-.849-.283l-4.949.707.283,1.98,1.979-.282-5.656,5.656,1.414,1.414,5.656-5.656L50.809,16.3Z"></path><rect x="20.394" y="41.607" width="2" height="2" transform="translate(-23.861 27.607) rotate(-45)"></rect><rect x="41.607" y="20.394" width="2" height="2" transform="translate(-2.648 36.393) rotate(-45)"></rect></svg>