<svg height='300px' width='300px'  fill="#000000" xmlns="http://www.w3.org/2000/svg" xmlns:xlink="http://www.w3.org/1999/xlink" xml:space="preserve" version="1.0" style="shape-rendering:geometricPrecision;text-rendering:geometricPrecision;image-rendering:optimizeQuality;" viewBox="0 0 10000 10000" x="0px" y="0px" fill-rule="evenodd" clip-rule="evenodd"><defs><style type="text/css">
   
    .fil0 {fill:#000000;fill-rule:nonzero}
   
  </style></defs><g><path class="fil0" d="M3626 5457l107 56 0 -112 -107 56zm309 162l665 349 0 -1019 -665 347 0 316 0 7zm-1660 -2426l787 0c56,0 101,45 101,101l0 292 671 0c56,0 101,46 101,101l0 1382 665 -347 0 -2783c0,-56 45,-101 100,-101l591 0 0 -293c0,-56 45,-101 101,-101l787 0c56,0 101,45 101,101l0 787c0,56 -45,101 -101,101l-787 0c-56,0 -101,-45 -101,-101l0 -292 -490 0 0 2576 244 -127c33,-20 74,-20 107,0l690 361 0 -630c0,-56 46,-101 101,-101l894 0 0 -293c0,-56 45,-101 101,-101l787 0c56,0 101,45 101,101l0 787c0,56 -45,101 -101,101l-787 0c-56,0 -101,-45 -101,-101l0 -293 -793 0 0 635 783 408c36,16 62,52 62,94l0 2112c0,36 -20,71 -54,89l-1684 884c-22,22 -79,15 -104,0l-1685 -884c-34,-18 -54,-53 -54,-89l0 -2112c0,-42 26,-78 62,-94l363 -189 0 -1386 -570 0 0 293c0,56 -45,101 -101,101l-787 0c-56,0 -101,-45 -101,-101l0 -787c0,-56 45,-101 101,-101zm393 595c-132,0 -132,-202 0,-202l293 0 0 -191 -585 0 0 585 585 0 0 -192 -293 0zm2133 2286l197 103 0 -1436 -197 102 0 1231zm692 -4236l293 0c132,0 132,202 0,202l-293 0 0 191 585 0 0 -585 -585 0 0 192zm551 3344l0 551 527 -276 -527 -275zm-202 657l0 -762 -642 -336 0 1436 642 -338zm1197 -1720l293 0c132,0 132,201 0,201l-293 0 0 192 585 0 0 -585 -585 0 0 192zm-352 1504l-691 363 -2 2 -10 4 -784 412 0 1885 1487 -781 0 -1885zm-1689 781l-1488 -781 0 1885 1488 781c0,-628 0,-1256 0,-1885z"></path></g></svg>