<svg height='300px' width='300px'  fill="#000000" xmlns="http://www.w3.org/2000/svg" xmlns:xlink="http://www.w3.org/1999/xlink" version="1.1" x="0px" y="0px" viewBox="0 0 512 512" style="enable-background:new 0 0 512 512;" xml:space="preserve"><g><g><g><path d="M255.889,450.765c-2.215,0-4.435-0.49-6.494-1.479l-122.71-58.951c-5.204-2.5-8.512-7.765-8.505-13.538l0.166-141.814     l30,0.035l-0.155,132.367l92.686,44.527l-0.063-109.56l30-0.018l0.076,133.422c0.003,5.158-2.645,9.956-7.01,12.703     C261.448,449.99,258.673,450.765,255.889,450.765z"></path><path d="M262.384,449.29l-12.971-27.051l114.407-54.858V235.005h30v141.818c0,5.771-3.311,11.03-8.515,13.525L262.384,449.29z"></path><path d="M255.813,317.343c-2.489,0-4.978-0.619-7.228-1.856l-122.468-67.344c-4.923-2.706-7.92-7.937-7.767-13.553     c0.152-5.615,3.431-10.674,8.493-13.109l122.529-58.925c4.103-1.972,8.878-1.976,12.984-0.008l122.947,58.925     c5.073,2.432,8.359,7.497,8.511,13.122c0.152,5.624-2.855,10.859-7.791,13.562L263.017,315.5     C260.772,316.729,258.293,317.343,255.813,317.343z M166.1,235.892l89.729,49.342l90.137-49.348l-90.08-43.173L166.1,235.892z"></path></g><g><rect x="241.435" y="69.277" width="30" height="106.797"></rect><path d="M279.896,120.247l-23.684-28.021l-23.61,27.884l-22.895-19.387l35.068-41.416c2.85-3.365,7.037-5.307,11.447-5.307     c0.003,0,0.005,0,0.007,0c4.413,0.002,8.601,1.947,11.449,5.317l35.129,41.564L279.896,120.247z"></path></g><g><rect x="411.738" y="348.966" transform="matrix(0.4948 -0.869 0.869 0.4948 -135.5807 574.9996)" width="30" height="110.28"></rect><path d="M424.872,456.707l-5.904-29.414l36.485-7.323l-11.552-35.019l28.49-9.398l16.854,51.093     c1.345,4.077,0.878,8.534-1.28,12.244c-2.159,3.71-5.804,6.316-10.013,7.162L424.872,456.707z"></path></g><g><rect x="30.122" y="389.096" transform="matrix(0.869 -0.4948 0.4948 0.869 -188.7753 95.1191)" width="110.28" height="30"></rect><path d="M86.863,457.642l-53.08-11.655c-4.146-0.911-7.713-3.536-9.815-7.224c-2.102-3.688-2.543-8.095-1.213-12.127     l16.854-51.093l28.49,9.398l-11.646,35.308l36.845,8.09L86.863,457.642z"></path></g></g></g></svg>